# xmcd
#
# Track frame offsets: 
#        150
#        16665
#        23480
#        31845
#        49003
#        59143
#        65907
#        81575
#        91497
#        101172
#        110032
#        137138
#        151939
#        165816
#        170281
#
# Disc length: 2515 seconds
#
# Revision: 0
# Processed by: cddbd v1.5.2PL0 Copyright (c) Steve Scherf et al.
# Submitted via: ExactAudioCopy v0.99pb4
#
DISCID=c009d10f
DTITLE=Willie Nelson - Burning Down Red Lodge [CD3 0f 3) August 27,
DTITLE=2001
DYEAR=2001
DGENRE=Country
TTITLE0=Healing Hands Of Time
TTITLE1=Iv'e Gotta Get Drunk
TTITLE2=Instrumental
TTITLE3=The Gypsy
TTITLE4=I Saw The Light
TTITLE5=Instrumental
TTITLE6=Yesterday's Wine
TTITLE7=Instrumental
TTITLE8=No Teardrops Tonight
TTITLE9=Me And Paul
TTITLE10=Old Mountain Dew
TTITLE11=Time will Take Care of Itself
TTITLE12=Red Headed Stranger
TTITLE13=Time Of The Preacher
TTITLE14=Final Jam
EXTD=
EXTT0=
EXTT1=
EXTT2=
EXTT3=
EXTT4=
EXTT5=
EXTT6=
EXTT7=
EXTT8=
EXTT9=
EXTT10=
EXTT11=
EXTT12=
EXTT13=
EXTT14=
PLAYORDER=
